<svg width="229" height="39" viewBox="0 0 229 39" fill="none" xmlns="http://www.w3.org/2000/svg">
<path fill-rule="evenodd" clip-rule="evenodd" d="M30.8564 3.41867V17.1298V17.4297H31.1938H33.5741H33.9116V17.1298V3.70802V0.337689V0.0377607L33.6116 0.000269769H33.5741L16.5382 0H16.2382V0.337419V3.08099V3.41841H16.5382L30.8564 3.41867ZM0.337419 17.2756H0V17.5756V34.1841V34.5215H0.337419H3.52415H3.86157V34.1841V17.5756V17.2756H3.52415H0.337419ZM0.990065 0.562365L33.5548 33.6592L34.0797 34.1841H33.3299L29.1684 34.2216H29.0559L28.9434 34.1466L0.540173 5.17376L0.4277 5.09878V4.94881V0.787311V0L0.990065 0.562365Z" fill="#F1582D"/>
<path fill-rule="evenodd" clip-rule="evenodd" d="M107.992 5.98218H112.266V30.1761H107.992V5.98218ZM49.4143 7.35613L59.8322 23.1165V7.35613H64.1062V30.1763H59.9849L49.567 14.4159V30.1763H45.293V7.35613H49.4143ZM79.3699 25.4823C80.0949 24.7191 80.4765 23.5743 80.4765 22.086V11.9734H84.7506V30.1379H80.4765V28.5733C79.9804 29.0313 79.3699 29.451 78.683 29.7563C77.729 30.1761 76.6986 30.4051 75.6301 30.4051C74.18 30.4051 72.8825 30.1379 71.7377 29.5274C70.5929 28.9168 69.677 28.0391 69.0283 26.8561C68.3796 25.6731 68.0743 24.2612 68.0743 22.6203V11.9734H72.3101V22.086C72.3101 23.5361 72.6917 24.6809 73.4168 25.4823C74.1418 26.2455 75.134 26.6271 76.3933 26.6271C77.6526 26.6271 78.6448 26.2455 79.3699 25.4823ZM100.474 24.1848C99.8256 25.902 98.5662 26.7416 96.62 26.7416C95.2081 26.7416 94.1396 26.2455 93.3001 25.2533C92.4987 24.2611 92.0789 22.8492 92.0789 21.0174C92.0789 19.2239 92.4987 17.8119 93.3001 16.8198C94.1396 15.8276 95.2081 15.3315 96.62 15.3315C97.6122 15.3315 98.4518 15.5604 99.0623 16.0184C99.7111 16.4763 100.169 17.0869 100.474 17.8883L100.551 18.1172H105.13L105.015 17.6975C104.519 15.7512 103.527 14.263 102.077 13.2326C100.665 12.1641 98.8334 11.6299 96.62 11.6299C94.9028 11.6299 93.3382 12.0115 92.0026 12.7747C90.667 13.5379 89.5985 14.6446 88.8352 16.0947C88.1102 17.5066 87.7286 19.1476 87.7286 20.9793C87.7286 22.811 88.1102 24.4901 88.8352 25.902C89.5985 27.314 90.667 28.4206 92.0026 29.222C93.3382 29.9852 94.9028 30.3668 96.62 30.3668C98.757 30.3668 100.589 29.8326 102.039 28.7259C103.489 27.6193 104.481 26.131 105.015 24.2993L105.13 23.8795H100.551L100.474 24.1848ZM128.826 12.813C127.491 12.0498 125.964 11.7063 124.247 11.7063C122.492 11.7063 120.889 12.0879 119.515 12.8512C118.141 13.6144 117.073 14.721 116.31 16.1711C115.585 17.5831 115.203 19.224 115.203 21.0557C115.203 22.8874 115.585 24.5665 116.348 25.9785C117.149 27.3904 118.218 28.4971 119.591 29.2985C120.965 30.0617 122.53 30.4433 124.285 30.4433C126.422 30.4433 128.216 29.909 129.628 28.8405C131.078 27.772 132.108 26.3601 132.642 24.7192L132.795 24.2994H128.216L128.139 24.4902C127.376 26.0166 126.117 26.7417 124.285 26.7417C123.026 26.7417 121.919 26.3601 121.08 25.5587C120.278 24.8336 119.82 23.9178 119.668 22.7348H132.986L133.024 22.4677C133.1 21.9334 133.139 21.3229 133.139 20.636C133.139 18.8806 132.757 17.316 132.032 15.9803C131.231 14.6447 130.162 13.5762 128.826 12.813ZM121.08 16.5146C121.919 15.7514 122.911 15.4079 124.094 15.4079C125.392 15.4079 126.499 15.7895 127.338 16.5528C128.139 17.2396 128.559 18.1173 128.636 19.1858H119.63C119.859 18.0792 120.317 17.2015 121.08 16.5146ZM147.143 25.4823C147.868 24.7191 148.25 23.5743 148.25 22.086V11.9734H152.524V30.1379H148.25V28.5733C147.754 29.0313 147.143 29.451 146.456 29.7563C145.502 30.1761 144.472 30.4051 143.404 30.4051C141.953 30.4051 140.656 30.1379 139.511 29.5274C138.366 28.9168 137.45 28.0391 136.802 26.8561C136.153 25.6731 135.848 24.2612 135.848 22.6203V11.9734H140.084V22.086C140.084 23.5361 140.465 24.6809 141.19 25.4823C141.915 26.2455 142.907 26.6271 144.167 26.6271C145.426 26.6271 146.418 26.2455 147.143 25.4823ZM167.179 20.4069C166.377 20.0253 165.309 19.6818 164.011 19.3384C163.057 19.0712 162.332 18.8423 161.874 18.6896C161.416 18.4988 161.035 18.2699 160.73 18.0027C160.462 17.7356 160.31 17.4303 160.31 17.0487C160.31 16.5526 160.501 16.171 160.92 15.8657C161.378 15.5604 162.065 15.3696 162.943 15.3696C163.821 15.3696 164.546 15.5986 165.08 15.9802C165.576 16.4 165.843 16.9342 165.919 17.6211L165.958 17.9264H170.232V17.583C170.155 15.7512 169.43 14.3011 168.133 13.2326C166.873 12.1641 165.194 11.6299 163.134 11.6299C161.76 11.6299 160.501 11.8588 159.432 12.3168C158.364 12.7747 157.524 13.4616 156.952 14.263C156.379 15.0644 156.074 16.0184 156.074 17.0106C156.074 18.2317 156.417 19.2239 157.028 19.9871C157.677 20.7122 158.44 21.2846 159.318 21.628C160.157 21.9715 161.264 22.3149 162.561 22.6965C163.897 23.0781 164.851 23.4216 165.462 23.7269C165.996 23.994 166.225 24.3756 166.225 24.9098C166.225 25.4059 165.996 25.8257 165.5 26.1691C165.004 26.5126 164.279 26.6652 163.325 26.6652C162.409 26.6652 161.645 26.4363 161.073 26.0165C160.501 25.5586 160.195 25.0243 160.157 24.3756L160.119 24.0703H155.731V24.4138C155.769 25.5204 156.15 26.5889 156.799 27.5048C157.448 28.3825 158.364 29.1075 159.508 29.6418C160.653 30.1379 161.951 30.405 163.363 30.405C164.775 30.405 165.996 30.176 167.026 29.7181C168.095 29.2602 168.934 28.5733 169.507 27.7719C170.079 26.9324 170.384 25.9783 170.384 24.9098C170.346 23.7269 170.041 22.7347 169.392 22.0096C168.782 21.3227 168.018 20.7503 167.179 20.4069ZM178.665 11.0194H172.75V7.3941H188.854V11.0194H182.939V30.1761H178.665V11.0194ZM204.307 12.813C202.971 12.0497 201.445 11.7063 199.728 11.7063C197.972 11.7063 196.37 12.0879 194.996 12.8511C193.622 13.6143 192.554 14.721 191.79 16.1711C191.065 17.5831 190.684 19.224 190.684 21.0557C190.684 22.8874 191.065 24.5665 191.828 25.9784C192.63 27.3904 193.698 28.4971 195.072 29.2984C196.446 30.0616 198.011 30.4433 199.766 30.4433C201.903 30.4433 203.696 29.909 205.108 28.8405C206.559 27.772 207.589 26.36 208.123 24.7191L208.276 24.2994H203.697L203.62 24.4902C202.857 26.0166 201.598 26.7417 199.766 26.7417C198.507 26.7417 197.4 26.3601 196.56 25.5587C195.759 24.8336 195.301 23.9178 195.148 22.7348H208.467L208.505 22.4676C208.581 21.9334 208.619 21.3228 208.619 20.6359C208.619 18.8805 208.238 17.3159 207.513 15.9803C206.711 14.6447 205.643 13.5762 204.307 12.813ZM195.148 19.1858C195.339 18.0792 195.835 17.2015 196.56 16.5527C197.4 15.7895 198.392 15.4461 199.575 15.4461C200.873 15.4461 201.979 15.8277 202.819 16.5909C203.62 17.2778 204.04 18.1555 204.116 19.224H195.148V19.1858ZM224.649 13.9579V11.9735H229V38.4571H224.687V28.1155C224.153 28.6498 223.466 29.1077 222.665 29.5275C221.52 30.0999 220.223 30.4052 218.811 30.4052C217.246 30.4052 215.796 30.0236 214.499 29.2222C213.201 28.4208 212.171 27.276 211.407 25.864C210.682 24.4139 210.301 22.773 210.301 20.9795C210.301 19.1477 210.682 17.545 211.407 16.133C212.209 14.7211 213.239 13.6144 214.537 12.8512C215.834 12.088 217.322 11.6682 218.925 11.6682C220.337 11.6682 221.596 11.9735 222.665 12.5459C223.466 12.9657 224.115 13.4236 224.649 13.9579ZM223.924 24.0705C224.42 23.2309 224.649 22.2006 224.649 21.0558C224.649 19.9109 224.42 18.9188 223.924 18.0411C223.466 17.2015 222.856 16.5528 222.093 16.133C221.329 15.7133 220.528 15.4843 219.65 15.4843C218.773 15.4843 217.971 15.7133 217.208 16.133C216.445 16.5528 215.796 17.1634 215.338 18.0029C214.88 18.8424 214.651 19.8346 214.651 20.9795C214.651 22.1243 214.88 23.1165 215.338 23.9942C215.834 24.8719 216.445 25.5206 217.208 25.9785C217.971 26.3983 218.811 26.6272 219.65 26.6272C220.528 26.6272 221.329 26.3983 222.093 25.9785C222.856 25.5587 223.466 24.91 223.924 24.0705Z" fill="white"/>
</svg>
